<svg width="117" height="105" viewBox="0 0 117 105" fill="none" xmlns="http://www.w3.org/2000/svg">
<path d="M108.846 72.4703C109.911 80.3215 104.686 87.6467 96.9156 89.1961L32.6825 102.005C24.5582 103.625 16.6588 98.3519 15.0388 90.2276L7.85891 54.2215C6.23887 46.0972 11.5116 38.1978 19.6359 36.5777L71.5833 26.2191C74.7679 25.584 77.6605 23.9327 79.8263 21.5131L93.2482 6.51888C95.5241 3.97641 99.7338 5.26791 100.192 8.64926L108.846 72.4703Z" fill="url(#paint0_linear_4_246)"/>
<path d="M44.4886 79.1162L39.5184 54.191L45.0612 53.0857L50.0315 78.011L44.4886 79.1162ZM59.9169 76.0397L54.9466 51.1145L60.5248 50.0021L65.4951 74.9274L59.9169 76.0397ZM45.7305 68.0395L44.773 63.2381L58.7185 60.4572L59.6759 65.2587L45.7305 68.0395ZM69.7835 74.0723L66.362 56.9141L71.7637 55.8369L75.1852 72.9951L69.7835 74.0723ZM68.6088 54.0066C67.7615 54.1755 66.9991 54.0339 66.3216 53.5816C65.6629 53.1012 65.2514 52.449 65.0872 51.6253C64.9182 50.778 65.0481 50.0179 65.4768 49.3451C65.929 48.6675 66.5788 48.2443 67.4261 48.0753C68.2734 47.9064 69.0241 48.0504 69.6781 48.5073C70.3321 48.9642 70.7435 49.6163 70.9125 50.4637C71.0768 51.2874 70.9469 52.0475 70.5229 52.7439C70.0942 53.4167 69.4562 53.8376 68.6088 54.0066Z" fill="black"/>
<defs>
<linearGradient id="paint0_linear_4_246" x1="68.9947" y1="94.7638" x2="53.3178" y2="26.5117" gradientUnits="userSpaceOnUse">
<stop stop-color="#F5BF00"/>
<stop offset="1" stop-color="#FFE68B"/>
</linearGradient>
</defs>
</svg>
